<mxfile host="app.diagrams.net" modified="2022-05-12T08:25:37.123Z" agent="5.0 (Windows NT 10.0; Win64; x64) AppleWebKit/537.36 (KHTML, like Gecko) Chrome/101.0.4951.64 Safari/537.36" etag="njSpThuIz7qG2TwmluLC" version="18.0.3" type="github">
  <diagram id="uV6_BV6XKQVdwxZXVooB" name="Page-1">
    <mxGraphModel dx="2062" dy="1122" grid="1" gridSize="10" guides="1" tooltips="1" connect="1" arrows="1" fold="1" page="1" pageScale="1" pageWidth="827" pageHeight="1169" math="0" shadow="0">
      <root>
        <mxCell id="0" />
        <mxCell id="1" parent="0" />
        <mxCell id="whivXN8A2qbGqClQpVsV-6" value="" style="rounded=0;whiteSpace=wrap;html=1;fillColor=#E3E3E3;shadow=1;strokeColor=none;" parent="1" vertex="1">
          <mxGeometry x="38" y="135" width="752" height="465" as="geometry" />
        </mxCell>
        <mxCell id="whivXN8A2qbGqClQpVsV-7" value="信创网络" style="rounded=0;whiteSpace=wrap;html=1;shadow=0;fillColor=#E3E3E3;strokeColor=none;fontColor=#D26D19;" parent="1" vertex="1">
          <mxGeometry x="69" y="190" width="20" height="255" as="geometry" />
        </mxCell>
        <mxCell id="whivXN8A2qbGqClQpVsV-19" value="" style="rounded=0;whiteSpace=wrap;html=1;fillColor=#D7D0E3;shadow=1;strokeColor=none;" parent="1" vertex="1">
          <mxGeometry x="39" y="620" width="750" height="390" as="geometry" />
        </mxCell>
        <mxCell id="whivXN8A2qbGqClQpVsV-20" value="业务内网" style="rounded=0;whiteSpace=wrap;html=1;shadow=0;fillColor=#D7D0E3;strokeColor=none;fontColor=#D26D19;" parent="1" vertex="1">
          <mxGeometry x="79" y="790" width="20" height="100" as="geometry" />
        </mxCell>
        <mxCell id="whivXN8A2qbGqClQpVsV-24" value="配置中心&lt;br&gt;注册中心&lt;br&gt;统一文件存储服务&lt;br&gt;文件转换服务&lt;br&gt;RabbitMQ集群服务&lt;br&gt;用户中心&lt;br&gt;交易日查询服务&lt;br&gt;数据埋点服务&lt;br&gt;" style="rounded=1;whiteSpace=wrap;html=1;shadow=1;fillColor=#d5e8d4;strokeColor=none;" parent="1" vertex="1">
          <mxGeometry x="120" y="870" width="150" height="130" as="geometry" />
        </mxCell>
        <mxCell id="whivXN8A2qbGqClQpVsV-25" value="" style="rounded=0;whiteSpace=wrap;html=1;fillColor=#F7D8C1;shadow=1;strokeColor=none;" parent="1" vertex="1">
          <mxGeometry x="38" y="1030" width="750" height="100" as="geometry" />
        </mxCell>
        <mxCell id="whivXN8A2qbGqClQpVsV-30" value="腾讯苹果&lt;br&gt;小米华为&lt;br&gt;消息服务" style="rounded=1;whiteSpace=wrap;html=1;shadow=1;fillColor=#d5e8d4;strokeColor=none;" parent="1" vertex="1">
          <mxGeometry x="180" y="30" width="120" height="60" as="geometry" />
        </mxCell>
        <mxCell id="whivXN8A2qbGqClQpVsV-31" value="第三方服务" style="rounded=1;whiteSpace=wrap;html=1;shadow=1;strokeColor=none;fillColor=#d5e8d4;" parent="1" vertex="1">
          <mxGeometry x="533" y="30" width="120" height="60" as="geometry" />
        </mxCell>
        <mxCell id="whivXN8A2qbGqClQpVsV-32" value="移动终端" style="rounded=1;whiteSpace=wrap;html=1;shadow=1;strokeColor=none;fillColor=#d5e8d4;" parent="1" vertex="1">
          <mxGeometry x="353" y="30" width="120" height="60" as="geometry" />
        </mxCell>
        <mxCell id="whivXN8A2qbGqClQpVsV-33" value="办公内网" style="rounded=0;whiteSpace=wrap;html=1;shadow=0;fillColor=#F7D8C1;strokeColor=none;" parent="1" vertex="1">
          <mxGeometry x="78" y="1030" width="20" height="100" as="geometry" />
        </mxCell>
        <mxCell id="whivXN8A2qbGqClQpVsV-34" value="ERP服务" style="rounded=1;whiteSpace=wrap;html=1;shadow=1;fillColor=#d5e8d4;strokeColor=none;" parent="1" vertex="1">
          <mxGeometry x="354" y="1050" width="120" height="60" as="geometry" />
        </mxCell>
        <mxCell id="whivXN8A2qbGqClQpVsV-39" style="edgeStyle=orthogonalEdgeStyle;rounded=0;orthogonalLoop=1;jettySize=auto;html=1;exitX=0.5;exitY=1;exitDx=0;exitDy=0;fontColor=#000000;" parent="1" edge="1">
          <mxGeometry relative="1" as="geometry">
            <mxPoint x="214" y="857" as="sourcePoint" />
            <mxPoint x="214" y="857" as="targetPoint" />
          </mxGeometry>
        </mxCell>
        <mxCell id="FQBGxM2qAuPWXbnojut7-25" value="" style="group" parent="1" vertex="1" connectable="0">
          <mxGeometry x="110" y="160" width="640" height="110" as="geometry" />
        </mxCell>
        <mxCell id="FQBGxM2qAuPWXbnojut7-31" value="" style="group" parent="FQBGxM2qAuPWXbnojut7-25" vertex="1" connectable="0">
          <mxGeometry width="640" height="110" as="geometry" />
        </mxCell>
        <mxCell id="FQBGxM2qAuPWXbnojut7-19" value="" style="rounded=1;whiteSpace=wrap;html=1;shadow=1;strokeColor=none;" parent="FQBGxM2qAuPWXbnojut7-31" vertex="1">
          <mxGeometry width="640" height="110" as="geometry" />
        </mxCell>
        <mxCell id="FQBGxM2qAuPWXbnojut7-20" value="接口机1" style="rounded=1;whiteSpace=wrap;html=1;shadow=1;fillColor=#d5e8d4;strokeColor=none;" parent="FQBGxM2qAuPWXbnojut7-31" vertex="1">
          <mxGeometry x="128.00000000000003" y="20" width="128.00000000000003" height="45" as="geometry" />
        </mxCell>
        <mxCell id="FQBGxM2qAuPWXbnojut7-21" value="接口机2" style="rounded=1;whiteSpace=wrap;html=1;shadow=1;fillColor=#d5e8d4;strokeColor=none;" parent="FQBGxM2qAuPWXbnojut7-31" vertex="1">
          <mxGeometry x="382.40000000000003" y="20" width="128.00000000000003" height="45" as="geometry" />
        </mxCell>
        <mxCell id="FQBGxM2qAuPWXbnojut7-23" value="正反向代理服务器" style="rounded=0;whiteSpace=wrap;html=1;shadow=0;fillColor=none;strokeColor=none;" parent="FQBGxM2qAuPWXbnojut7-31" vertex="1">
          <mxGeometry x="199.20000000000002" y="70" width="240.00000000000003" height="30" as="geometry" />
        </mxCell>
        <mxCell id="FQBGxM2qAuPWXbnojut7-32" value="中台网关" style="rounded=1;whiteSpace=wrap;html=1;shadow=1;fillColor=#d5e8d4;strokeColor=none;" parent="1" vertex="1">
          <mxGeometry x="120" y="792.5" width="540" height="45" as="geometry" />
        </mxCell>
        <mxCell id="DiEWyZq9QsWcZsbGiiyI-14" value="电子公文系统" style="rounded=1;whiteSpace=wrap;html=1;shadow=1;strokeColor=none;fillColor=#d5e8d4;" parent="1" vertex="1">
          <mxGeometry x="530" y="380" width="120" height="60" as="geometry" />
        </mxCell>
        <mxCell id="azjI9z3x6bwZC3RB3IAh-2" value="" style="shape=flexArrow;endArrow=classic;html=1;rounded=1;fillColor=#fff2cc;strokeColor=default;shadow=0;" edge="1" parent="1">
          <mxGeometry width="50" height="50" relative="1" as="geometry">
            <mxPoint x="239.5" y="155" as="sourcePoint" />
            <mxPoint x="239.5" y="95" as="targetPoint" />
          </mxGeometry>
        </mxCell>
        <mxCell id="azjI9z3x6bwZC3RB3IAh-3" value="" style="shape=flexArrow;endArrow=classic;html=1;rounded=1;fillColor=#fff2cc;strokeColor=default;shadow=0;" edge="1" parent="1">
          <mxGeometry width="50" height="50" relative="1" as="geometry">
            <mxPoint x="592.5" y="155" as="sourcePoint" />
            <mxPoint x="592.5" y="95" as="targetPoint" />
          </mxGeometry>
        </mxCell>
        <mxCell id="azjI9z3x6bwZC3RB3IAh-4" value="" style="shape=flexArrow;endArrow=classic;html=1;rounded=1;fillColor=#fff2cc;strokeColor=default;shadow=0;" edge="1" parent="1">
          <mxGeometry width="50" height="50" relative="1" as="geometry">
            <mxPoint x="415" y="96" as="sourcePoint" />
            <mxPoint x="415" y="156" as="targetPoint" />
          </mxGeometry>
        </mxCell>
        <mxCell id="azjI9z3x6bwZC3RB3IAh-5" value="" style="group" vertex="1" connectable="0" parent="1">
          <mxGeometry x="110" y="338" width="310" height="90" as="geometry" />
        </mxCell>
        <mxCell id="FQBGxM2qAuPWXbnojut7-7" value="" style="rounded=1;whiteSpace=wrap;html=1;shadow=1;strokeColor=none;" parent="azjI9z3x6bwZC3RB3IAh-5" vertex="1">
          <mxGeometry width="310" height="90" as="geometry" />
        </mxCell>
        <mxCell id="FQBGxM2qAuPWXbnojut7-1" value="LIP1" style="rounded=1;whiteSpace=wrap;html=1;shadow=1;fillColor=#d5e8d4;strokeColor=none;" parent="azjI9z3x6bwZC3RB3IAh-5" vertex="1">
          <mxGeometry x="10" y="10" width="80" height="45" as="geometry" />
        </mxCell>
        <mxCell id="FQBGxM2qAuPWXbnojut7-8" value="LIP2" style="rounded=1;whiteSpace=wrap;html=1;shadow=1;fillColor=#d5e8d4;strokeColor=none;" parent="azjI9z3x6bwZC3RB3IAh-5" vertex="1">
          <mxGeometry x="115" y="10" width="80" height="45" as="geometry" />
        </mxCell>
        <mxCell id="FQBGxM2qAuPWXbnojut7-9" value="LIP3" style="rounded=1;whiteSpace=wrap;html=1;shadow=1;fillColor=#d5e8d4;strokeColor=none;" parent="azjI9z3x6bwZC3RB3IAh-5" vertex="1">
          <mxGeometry x="218" y="10" width="80" height="45" as="geometry" />
        </mxCell>
        <mxCell id="FQBGxM2qAuPWXbnojut7-10" value="逻辑/文件服务器" style="rounded=0;whiteSpace=wrap;html=1;shadow=0;fillColor=none;strokeColor=none;" parent="azjI9z3x6bwZC3RB3IAh-5" vertex="1">
          <mxGeometry x="80" y="60" width="150" height="30" as="geometry" />
        </mxCell>
        <mxCell id="azjI9z3x6bwZC3RB3IAh-6" value="" style="group" vertex="1" connectable="0" parent="1">
          <mxGeometry x="110" y="490" width="310" height="90" as="geometry" />
        </mxCell>
        <mxCell id="azjI9z3x6bwZC3RB3IAh-7" value="" style="rounded=1;whiteSpace=wrap;html=1;shadow=1;strokeColor=none;" vertex="1" parent="azjI9z3x6bwZC3RB3IAh-6">
          <mxGeometry width="310" height="90" as="geometry" />
        </mxCell>
        <mxCell id="azjI9z3x6bwZC3RB3IAh-8" value="SIP1" style="rounded=1;whiteSpace=wrap;html=1;shadow=1;fillColor=#d5e8d4;strokeColor=none;" vertex="1" parent="azjI9z3x6bwZC3RB3IAh-6">
          <mxGeometry x="10" y="10" width="80" height="45" as="geometry" />
        </mxCell>
        <mxCell id="azjI9z3x6bwZC3RB3IAh-9" value="SIP2" style="rounded=1;whiteSpace=wrap;html=1;shadow=1;fillColor=#d5e8d4;strokeColor=none;" vertex="1" parent="azjI9z3x6bwZC3RB3IAh-6">
          <mxGeometry x="115" y="10" width="80" height="45" as="geometry" />
        </mxCell>
        <mxCell id="azjI9z3x6bwZC3RB3IAh-10" value="SIP3" style="rounded=1;whiteSpace=wrap;html=1;shadow=1;fillColor=#d5e8d4;strokeColor=none;" vertex="1" parent="azjI9z3x6bwZC3RB3IAh-6">
          <mxGeometry x="218" y="10" width="80" height="45" as="geometry" />
        </mxCell>
        <mxCell id="azjI9z3x6bwZC3RB3IAh-11" value="存儲服务器" style="rounded=0;whiteSpace=wrap;html=1;shadow=0;fillColor=none;strokeColor=none;" vertex="1" parent="azjI9z3x6bwZC3RB3IAh-6">
          <mxGeometry x="80" y="60" width="150" height="30" as="geometry" />
        </mxCell>
        <mxCell id="azjI9z3x6bwZC3RB3IAh-12" value="" style="shape=flexArrow;endArrow=classic;startArrow=classic;html=1;rounded=1;shadow=0;strokeColor=default;fillColor=#fff2cc;width=8;" edge="1" parent="1">
          <mxGeometry width="100" height="100" relative="1" as="geometry">
            <mxPoint x="264.5" y="336.5" as="sourcePoint" />
            <mxPoint x="264.5" y="276.5" as="targetPoint" />
          </mxGeometry>
        </mxCell>
        <mxCell id="azjI9z3x6bwZC3RB3IAh-15" value="" style="shape=flexArrow;endArrow=classic;startArrow=classic;html=1;rounded=1;shadow=0;strokeColor=default;fillColor=#fff2cc;width=8;" edge="1" parent="1">
          <mxGeometry width="100" height="100" relative="1" as="geometry">
            <mxPoint x="264.5" y="490" as="sourcePoint" />
            <mxPoint x="264.5" y="430" as="targetPoint" />
          </mxGeometry>
        </mxCell>
        <mxCell id="azjI9z3x6bwZC3RB3IAh-22" value="" style="group" vertex="1" connectable="0" parent="1">
          <mxGeometry x="340" y="640" width="310" height="90" as="geometry" />
        </mxCell>
        <mxCell id="azjI9z3x6bwZC3RB3IAh-17" value="" style="rounded=1;whiteSpace=wrap;html=1;shadow=1;strokeColor=none;" vertex="1" parent="azjI9z3x6bwZC3RB3IAh-22">
          <mxGeometry width="310" height="90" as="geometry" />
        </mxCell>
        <mxCell id="azjI9z3x6bwZC3RB3IAh-18" value="服务器1" style="rounded=1;whiteSpace=wrap;html=1;shadow=1;fillColor=#d5e8d4;strokeColor=none;" vertex="1" parent="azjI9z3x6bwZC3RB3IAh-22">
          <mxGeometry x="43" y="10" width="80" height="45" as="geometry" />
        </mxCell>
        <mxCell id="azjI9z3x6bwZC3RB3IAh-19" value="服务器2" style="rounded=1;whiteSpace=wrap;html=1;shadow=1;fillColor=#d5e8d4;strokeColor=none;" vertex="1" parent="azjI9z3x6bwZC3RB3IAh-22">
          <mxGeometry x="193" y="10" width="80" height="45" as="geometry" />
        </mxCell>
        <mxCell id="azjI9z3x6bwZC3RB3IAh-21" value="随行H5服务器" style="rounded=0;whiteSpace=wrap;html=1;shadow=0;fillColor=none;strokeColor=none;" vertex="1" parent="azjI9z3x6bwZC3RB3IAh-22">
          <mxGeometry x="80" y="60" width="150" height="30" as="geometry" />
        </mxCell>
        <mxCell id="azjI9z3x6bwZC3RB3IAh-23" value="" style="group" vertex="1" connectable="0" parent="1">
          <mxGeometry x="414" y="900" width="310" height="90" as="geometry" />
        </mxCell>
        <mxCell id="azjI9z3x6bwZC3RB3IAh-24" value="" style="rounded=1;whiteSpace=wrap;html=1;shadow=1;strokeColor=none;" vertex="1" parent="azjI9z3x6bwZC3RB3IAh-23">
          <mxGeometry width="310" height="90" as="geometry" />
        </mxCell>
        <mxCell id="azjI9z3x6bwZC3RB3IAh-25" value="服务器1" style="rounded=1;whiteSpace=wrap;html=1;shadow=1;fillColor=#d5e8d4;strokeColor=none;" vertex="1" parent="azjI9z3x6bwZC3RB3IAh-23">
          <mxGeometry x="43" y="10" width="80" height="45" as="geometry" />
        </mxCell>
        <mxCell id="azjI9z3x6bwZC3RB3IAh-26" value="服务器2" style="rounded=1;whiteSpace=wrap;html=1;shadow=1;fillColor=#d5e8d4;strokeColor=none;" vertex="1" parent="azjI9z3x6bwZC3RB3IAh-23">
          <mxGeometry x="193" y="10" width="80" height="45" as="geometry" />
        </mxCell>
        <mxCell id="azjI9z3x6bwZC3RB3IAh-27" value="随行应用服务器" style="rounded=0;whiteSpace=wrap;html=1;shadow=0;fillColor=none;strokeColor=none;" vertex="1" parent="azjI9z3x6bwZC3RB3IAh-23">
          <mxGeometry x="80" y="60" width="150" height="30" as="geometry" />
        </mxCell>
        <mxCell id="azjI9z3x6bwZC3RB3IAh-28" value="" style="shape=flexArrow;endArrow=classic;html=1;rounded=1;fillColor=#fff2cc;strokeColor=default;shadow=0;" edge="1" parent="1">
          <mxGeometry width="50" height="50" relative="1" as="geometry">
            <mxPoint x="494.5" y="280" as="sourcePoint" />
            <mxPoint x="494.5" y="630" as="targetPoint" />
          </mxGeometry>
        </mxCell>
        <mxCell id="azjI9z3x6bwZC3RB3IAh-29" value="" style="shape=flexArrow;endArrow=classic;html=1;rounded=1;fillColor=#fff2cc;strokeColor=default;shadow=0;" edge="1" parent="1">
          <mxGeometry width="50" height="50" relative="1" as="geometry">
            <mxPoint x="494.5" y="730" as="sourcePoint" />
            <mxPoint x="494.5" y="790" as="targetPoint" />
          </mxGeometry>
        </mxCell>
        <mxCell id="azjI9z3x6bwZC3RB3IAh-30" value="" style="shape=flexArrow;endArrow=classic;html=1;rounded=1;fillColor=#fff2cc;strokeColor=default;shadow=0;" edge="1" parent="1">
          <mxGeometry width="50" height="50" relative="1" as="geometry">
            <mxPoint x="494.5" y="837.5" as="sourcePoint" />
            <mxPoint x="494.5" y="897.5" as="targetPoint" />
          </mxGeometry>
        </mxCell>
        <mxCell id="azjI9z3x6bwZC3RB3IAh-31" value="" style="shape=flexArrow;endArrow=classic;html=1;rounded=1;fillColor=#fff2cc;strokeColor=default;shadow=0;" edge="1" parent="1">
          <mxGeometry width="50" height="50" relative="1" as="geometry">
            <mxPoint x="690" y="888" as="sourcePoint" />
            <mxPoint x="690" y="278" as="targetPoint" />
          </mxGeometry>
        </mxCell>
        <mxCell id="azjI9z3x6bwZC3RB3IAh-32" value="" style="shape=flexArrow;endArrow=classic;html=1;rounded=1;fillColor=#fff2cc;strokeColor=default;shadow=0;" edge="1" parent="1">
          <mxGeometry width="50" height="50" relative="1" as="geometry">
            <mxPoint x="395" y="944.5" as="sourcePoint" />
            <mxPoint x="295" y="944.5" as="targetPoint" />
          </mxGeometry>
        </mxCell>
      </root>
    </mxGraphModel>
  </diagram>
</mxfile>
